<svg width="225" height="78" viewBox="0 0 225 78" fill="none" xmlns="http://www.w3.org/2000/svg"><g clip-path="url(#clip0_2427_89424)"><g clip-path="url(#clip1_2427_89424)"><path d="M45.0494 34.8819C41.2635 34.8819 38.3053 37.7609 38.3053 41.6152C38.3053 45.4694 41.1887 48.3238 45.0494 48.3238C48.9101 48.3238 51.8438 45.4201 51.8438 41.5905C51.8438 37.7856 48.9603 34.8819 45.0494 34.8819ZM45.075 45.5462C42.919 45.5462 41.3391 43.8688 41.3391 41.6161C41.3391 39.3379 42.8935 37.6614 45.0494 37.6614C47.231 37.6614 48.8099 39.3635 48.8099 41.6161C48.8099 43.8688 47.231 45.5462 45.075 45.5462ZM52.6706 37.8112H54.5513V48.0746H57.5596V35.1321H52.6706V37.8112ZM30.7343 37.6605C32.3141 37.6605 33.5676 38.6366 34.0434 40.0884H37.2277C36.6507 36.9848 34.0936 34.8819 30.7598 34.8819C26.9738 34.8819 24.0156 37.7609 24.0156 41.6161C24.0156 45.4713 26.8991 48.3248 30.7598 48.3248C34.0188 48.3248 36.6261 46.2218 37.2031 43.0926H34.0434C33.5922 44.5444 32.3387 45.5462 30.7589 45.5462C28.5773 45.5462 27.0486 43.8688 27.0486 41.6161C27.0495 39.3379 28.5537 37.6605 30.7343 37.6605ZM109.831 40.3642L107.625 40.0392C106.572 39.8894 105.82 39.5388 105.82 38.7124C105.82 37.8112 106.798 37.361 108.126 37.361C109.58 37.361 110.508 37.9865 110.709 39.0128H113.617C113.291 36.4095 111.285 34.8828 108.202 34.8828C105.018 34.8828 102.912 36.51 102.912 38.8129C102.912 41.0153 104.291 42.2928 107.073 42.6927L109.279 43.0177C110.358 43.1675 110.96 43.5939 110.96 44.3947C110.96 45.4211 109.907 45.8466 108.453 45.8466C106.672 45.8466 105.669 45.1206 105.519 44.0194H102.561C102.837 46.5479 104.817 48.3248 108.427 48.3248C111.712 48.3248 113.892 46.8227 113.892 44.244C113.892 41.9412 112.313 40.7395 109.831 40.3642ZM56.0554 29.8004C54.9524 29.8004 54.1246 30.6012 54.1246 31.7024C54.1246 32.8036 54.9514 33.6044 56.0554 33.6044C57.1585 33.6044 57.9863 32.8036 57.9863 31.7024C57.9863 30.6012 57.1585 29.8004 56.0554 29.8004ZM100.204 39.5634C100.204 36.7602 98.4996 34.8828 94.8896 34.8828C91.4801 34.8828 89.5748 36.6104 89.1983 39.264H92.182C92.3325 38.2376 93.1347 37.3866 94.8394 37.3866C96.3691 37.3866 97.1212 38.0623 97.1212 38.8887C97.1212 39.9652 95.7419 40.2401 94.0372 40.4154C91.7308 40.6656 88.8729 41.4664 88.8729 44.4705C88.8729 46.799 90.6031 48.3001 93.3608 48.3001C95.5168 48.3001 96.8705 47.3989 97.5479 45.9717C97.6481 47.2482 98.6008 48.0746 99.93 48.0746H101.685V45.3964H100.205V39.5634H100.204ZM97.2461 42.8178C97.2461 44.5454 95.7419 45.8219 93.9114 45.8219C92.7828 45.8219 91.8301 45.3462 91.8301 44.3454C91.8301 43.0689 93.3598 42.7183 94.7637 42.5685C96.1175 42.4434 96.8696 42.143 97.2461 41.5668V42.8178ZM81.2763 34.8819C79.5962 34.8819 78.1923 35.5832 77.1895 36.7592V29.6753H74.1812V48.0746H77.1394V46.3725C78.1422 47.5988 79.5716 48.3248 81.2763 48.3248C84.8863 48.3248 87.6194 45.4713 87.6194 41.6161C87.6194 37.7609 84.8362 34.8819 81.2763 34.8819ZM80.8251 45.5462C78.6691 45.5462 77.0892 43.8688 77.0892 41.6161C77.0892 39.3635 78.6937 37.6614 80.8497 37.6614C83.0312 37.6614 84.56 39.3388 84.56 41.6161C84.56 43.8688 82.9811 45.5462 80.8251 45.5462ZM66.9857 34.8819C65.0303 34.8819 63.7513 35.6827 62.9992 36.8095V35.1321H60.0155V48.0736H63.0238V41.0399C63.0238 39.0621 64.2773 37.6605 66.1324 37.6605C67.8627 37.6605 68.9402 38.8868 68.9402 40.6646V48.0746H71.9486V40.44C71.9495 37.1847 70.2703 34.8819 66.9857 34.8819ZM128.233 41.1906C128.233 37.4861 125.525 34.8828 121.89 34.8828C118.029 34.8828 115.196 37.7865 115.196 41.6161C115.196 45.6466 118.23 48.3248 121.94 48.3248C125.074 48.3248 127.531 46.472 128.157 43.8441H125.023C124.572 44.9955 123.469 45.6466 121.989 45.6466C120.058 45.6466 118.604 44.4449 118.279 42.342H128.232V41.1906H128.233ZM118.455 40.1889C118.932 38.3864 120.285 37.5107 121.84 37.5107C123.545 37.5107 124.848 38.4869 125.149 40.1889H118.455Z" fill="white"/></g><g clip-path="url(#clip2_2427_89424)"><path d="M154.401 40.4031C154.039 39.9347 153.492 39.613 152.761 39.4381C153.692 38.9633 154.101 38.1574 153.989 37.0204C153.951 36.608 153.837 36.2507 153.647 35.9478C153.456 35.6448 153.199 35.4013 152.873 35.217C152.549 35.0325 152.195 34.8921 151.815 34.7953C151.434 34.6985 150.996 34.6282 150.503 34.5845V32.2231H149.06V34.5189C148.81 34.5189 148.429 34.5251 147.917 34.5376V32.2231H146.474V34.5845C146.267 34.5908 145.964 34.5939 145.565 34.5939L143.578 34.5845V36.1213H144.618C145.093 36.1213 145.371 36.3337 145.452 36.7584V39.4478C145.515 39.4478 145.565 39.451 145.602 39.4572H145.452V43.224C145.402 43.5425 145.221 43.7019 144.909 43.7019H143.869L143.578 45.4167H145.452C145.571 45.4167 145.743 45.4183 145.968 45.4211C146.193 45.4243 146.361 45.4258 146.474 45.4258V47.8152H147.917V45.4539C148.179 45.4603 148.56 45.4634 149.06 45.4634V47.8152H150.503V45.4258C151.015 45.4009 151.47 45.3543 151.866 45.2853C152.263 45.2164 152.643 45.1088 153.005 44.9619C153.367 44.8152 153.67 44.6323 153.914 44.4137C154.157 44.1952 154.359 43.9171 154.518 43.5797C154.677 43.2423 154.779 42.8519 154.822 42.4083C154.904 41.5402 154.763 40.8717 154.401 40.4031ZM147.945 36.2241C147.988 36.2241 148.112 36.2225 148.315 36.2193C148.518 36.2161 148.687 36.213 148.821 36.2099C148.955 36.2068 149.136 36.2146 149.364 36.2333C149.592 36.2521 149.785 36.2771 149.941 36.3083C150.097 36.3395 150.269 36.391 150.456 36.4629C150.644 36.5347 150.793 36.6222 150.906 36.7252C151.018 36.8283 151.113 36.9595 151.191 37.1188C151.27 37.2781 151.309 37.4608 151.309 37.6669C151.309 37.8419 151.281 38.0012 151.224 38.1449C151.168 38.2886 151.084 38.4089 150.972 38.5057C150.859 38.6026 150.743 38.687 150.625 38.7588C150.506 38.8305 150.354 38.8884 150.17 38.932C149.986 38.9758 149.825 39.0102 149.688 39.0351C149.55 39.0601 149.379 39.0773 149.172 39.0867C148.966 39.096 148.81 39.1023 148.704 39.1054C148.598 39.1085 148.452 39.1085 148.268 39.1054C148.084 39.1023 147.976 39.1007 147.945 39.1007V36.224H147.945V36.2241ZM151.885 42.6052C151.826 42.7489 151.749 42.8739 151.656 42.9802C151.562 43.0862 151.438 43.18 151.285 43.2611C151.132 43.3424 150.984 43.4079 150.84 43.4579C150.697 43.5081 150.523 43.5516 150.32 43.5892C150.117 43.6267 149.939 43.6531 149.786 43.6688C149.633 43.6845 149.45 43.6969 149.238 43.7064C149.026 43.7155 148.86 43.7203 148.741 43.7203C148.623 43.7203 148.473 43.7186 148.291 43.7155C148.11 43.7126 147.995 43.7111 147.945 43.7111V40.5437C147.995 40.5437 148.143 40.5407 148.39 40.5343C148.637 40.528 148.838 40.5251 148.994 40.5251C149.15 40.5251 149.366 40.5343 149.641 40.5532C149.916 40.5718 150.147 40.5998 150.334 40.6373C150.522 40.6748 150.726 40.7325 150.948 40.8107C151.17 40.8887 151.349 40.984 151.487 41.0964C151.624 41.2091 151.74 41.3525 151.833 41.5275C151.927 41.7024 151.974 41.9023 151.974 42.1272C151.974 42.3023 151.945 42.4614 151.885 42.6052Z" fill="#CBCBCB"/></g><g clip-path="url(#clip3_2427_89424)"><path fill-rule="evenodd" clip-rule="evenodd" d="M166.307 39.1956L171.089 36.6782L175.832 39.2112L171.068 32.2246L166.307 39.1956ZM166.496 39.9229L171.1 37.4658L175.645 39.905L171.103 42.3648L166.496 39.9229ZM166.307 40.6257C167.985 41.517 169.736 42.4499 171.089 43.1718L175.831 40.6257C174.114 43.177 172.683 45.3008 171.089 47.6515L170.133 46.249C168.812 44.3099 167.448 42.3077 166.307 40.6257Z" fill="#CBCBCB"/></g><g clip-path="url(#clip4_2427_89424)"><path d="M193.534 40.9715L192.337 45.0078H198.739C198.781 45.0063 198.824 45.0132 198.864 45.0281C198.903 45.0429 198.94 45.0655 198.971 45.0944C199.002 45.1234 199.027 45.1582 199.044 45.1968C199.062 45.2354 199.072 45.2772 199.073 45.3196V45.4253L198.516 47.3461C198.492 47.4369 198.437 47.5167 198.361 47.5723C198.285 47.628 198.193 47.6562 198.099 47.6523H188.3L189.943 42.0571L188.105 42.6139L188.523 41.3334L190.36 40.7767L192.671 32.9268C192.696 32.8364 192.751 32.7572 192.827 32.7017C192.902 32.6462 192.994 32.6177 193.088 32.6206H195.566C195.608 32.6191 195.65 32.626 195.69 32.6408C195.73 32.6557 195.766 32.6783 195.797 32.7072C195.828 32.7362 195.853 32.7709 195.871 32.8096C195.889 32.8482 195.898 32.8899 195.9 32.9323V33.0381L193.951 39.6632L195.788 39.1065L195.399 40.4426L193.534 40.9715Z" fill="#CBCBCB"/></g></g><rect x="0.513672" y="0.5" width="223.987" height="77" rx="38.5" stroke="#17181A"/><defs><clipPath id="clip0_2427_89424"><rect width="176.987" height="26" fill="white" transform="translate(24.0137 26)"/></clipPath><clipPath id="clip1_2427_89424"><rect width="104.217" height="18.6495" fill="white" transform="translate(24.0137 29.6753)"/></clipPath><clipPath id="clip2_2427_89424"><rect width="15.5921" height="15.592" fill="white" transform="translate(141.23 32.0747)"/></clipPath><clipPath id="clip3_2427_89424"><rect width="15.5921" height="15.592" fill="white" transform="translate(163.318 32.0747)"/></clipPath><clipPath id="clip4_2427_89424"><rect width="15.5921" height="15.592" fill="white" transform="translate(185.408 32.0747)"/></clipPath></defs></svg>