<svg width="225" height="78" viewBox="0 0 225 78" fill="none" xmlns="http://www.w3.org/2000/svg"><g clip-path="url(#clip0_2427_89429)"><g clip-path="url(#clip1_2427_89429)"><path d="M54.5696 32.0356C53.9401 32.7743 52.933 33.357 51.9258 33.2737C51.7999 32.2749 52.293 31.2137 52.87 30.5582C53.4995 29.7987 54.6011 29.2577 55.4928 29.2161C55.5978 30.2565 55.1886 31.2761 54.5696 32.0356ZM55.4823 33.4714C54.024 33.3882 52.7756 34.2934 52.0832 34.2934C51.3802 34.2934 50.3206 33.513 49.1666 33.5338C47.6663 33.5547 46.271 34.3974 45.5051 35.7396C43.9314 38.4239 45.0959 42.3983 46.6172 44.5832C47.362 45.6653 48.2538 46.8513 49.4288 46.8097C50.5409 46.7681 50.9816 46.0918 52.3245 46.0918C53.6778 46.0918 54.066 46.8097 55.241 46.7889C56.458 46.7681 57.2239 45.7069 57.9688 44.6248C58.8186 43.3971 59.1648 42.2006 59.1858 42.1382C59.1648 42.1174 56.8357 41.233 56.8147 38.5695C56.7938 36.343 58.6507 35.2818 58.7347 35.2193C57.6855 33.6795 56.0489 33.513 55.4823 33.4714ZM63.9069 30.4542V46.6745H66.4458V41.129H69.9604C73.1707 41.129 75.4264 38.9441 75.4264 35.7812C75.4264 32.6183 73.2127 30.4542 70.0443 30.4542H63.9069ZM66.4458 32.5767H69.3729C71.5761 32.5767 72.835 33.7419 72.835 35.7916C72.835 37.8412 71.5761 39.0169 69.3624 39.0169H66.4458V32.5767ZM80.0636 46.7993C81.6582 46.7993 83.1375 45.9982 83.809 44.7289H83.8614V46.6745H86.2115V38.6007C86.2115 36.2598 84.323 34.7511 81.4169 34.7511C78.7207 34.7511 76.7273 36.2806 76.6539 38.3822H78.941C79.1298 37.3834 80.0636 36.728 81.3435 36.728C82.8962 36.728 83.767 37.4459 83.767 38.7672V39.662L80.5986 39.8493C77.6505 40.0261 76.0559 41.2226 76.0559 43.3035C76.0559 45.4051 77.703 46.7993 80.0636 46.7993ZM80.7455 44.8745C79.3921 44.8745 78.5318 44.2295 78.5318 43.2411C78.5318 42.2214 79.3606 41.6284 80.9448 41.5347L83.767 41.3579V42.2735C83.767 43.7925 82.4661 44.8745 80.7455 44.8745ZM89.3484 51.0859C91.8243 51.0859 92.9889 50.1495 94.0065 47.3091L98.4654 34.9072H95.8845L92.8945 44.4896H92.842L89.852 34.9072H87.1977L91.4991 46.7161L91.2683 47.434C90.8801 48.6513 90.2506 49.1195 89.1281 49.1195C88.9287 49.1195 88.5406 49.0987 88.3832 49.0779V51.0235C88.5301 51.0651 89.1595 51.0859 89.3484 51.0859Z" fill="white"/></g></g><g clip-path="url(#clip2_2427_89429)"><g clip-path="url(#clip3_2427_89429)"><path d="M152.966 39.9607V45.9177H151.053V31.2066H156.126C156.732 31.1941 157.334 31.3002 157.898 31.5188C158.462 31.7373 158.976 32.0641 159.411 32.4801C159.851 32.8709 160.201 33.3501 160.438 33.8857C160.675 34.4212 160.793 35.0005 160.784 35.5848C160.796 36.1722 160.68 36.7553 160.443 37.2943C160.207 37.8332 159.855 38.3151 159.411 38.7071C158.524 39.5428 157.429 39.9603 156.126 39.9595H152.966V39.9607ZM152.966 33.0177V38.1531H156.174C156.525 38.1634 156.875 38.101 157.201 37.9701C157.527 37.8391 157.822 37.6424 158.066 37.3924C158.31 37.1588 158.503 36.8793 158.635 36.5705C158.767 36.2618 158.835 35.93 158.835 35.5948C158.835 35.2596 158.767 34.9278 158.635 34.619C158.503 34.3103 158.31 34.0308 158.066 33.7971C157.825 33.5419 157.531 33.3404 157.205 33.2058C156.879 33.0712 156.527 33.0067 156.174 33.0165H152.966V33.0177Z" fill="white"/><path d="M165.194 35.5249C166.608 35.5249 167.724 35.8982 168.543 36.6447C169.361 37.3912 169.77 38.4148 169.769 39.7153V45.9188H167.939V44.522H167.856C167.064 45.6723 166.01 46.2475 164.695 46.2475C163.573 46.2475 162.634 45.9188 161.878 45.2615C161.516 44.9598 161.226 44.582 161.029 44.1556C160.833 43.7291 160.736 43.2648 160.745 42.7966C160.745 41.755 161.143 40.9267 161.94 40.3116C162.737 39.6966 163.801 39.3882 165.131 39.3867C166.267 39.3867 167.203 39.5921 167.938 40.0029V39.571C167.94 39.2517 167.87 38.936 167.734 38.6467C167.597 38.3574 167.397 38.1017 167.148 37.8983C166.642 37.4474 165.983 37.2014 165.301 37.2093C164.233 37.2093 163.387 37.6546 162.765 38.5451L161.08 37.4969C162.006 36.1822 163.378 35.5249 165.194 35.5249ZM162.719 42.8376C162.718 43.0781 162.775 43.3155 162.885 43.5299C162.996 43.7442 163.156 43.9295 163.354 44.0701C163.777 44.3989 164.302 44.5731 164.84 44.5631C165.647 44.5618 166.421 44.2444 166.992 43.6804C167.626 43.0912 167.943 42.3998 167.943 41.6063C167.346 41.1368 166.514 40.902 165.447 40.902C164.67 40.902 164.022 41.0871 163.504 41.4573C162.98 41.8329 162.719 42.2895 162.719 42.8376Z" fill="white"/><path d="M180.27 35.8528L173.883 50.355H171.908L174.278 45.2807L170.078 35.8528H172.157L175.193 43.0833H175.235L178.187 35.8528H180.27Z" fill="white"/><path fill-rule="evenodd" clip-rule="evenodd" d="M140.304 34.6438C139.421 33.8118 138.242 33.3564 137.022 33.3761C134.792 33.3761 132.899 34.8606 132.221 36.8614V36.864C131.863 37.9133 131.863 39.0497 132.221 40.099L132.219 40.0998C132.897 42.1023 134.791 43.5883 137.022 43.5883C138.178 43.5883 139.167 43.2948 139.934 42.7807L139.936 42.7822V42.7791C140.382 42.4871 140.763 42.109 141.056 41.6677C141.35 41.2263 141.55 40.7307 141.645 40.2108H137.024V36.9559H145.092C145.19 37.5235 145.24 38.0984 145.239 38.6744C145.239 41.2461 144.309 43.4212 142.694 44.8919H142.69L142.692 44.8935C141.274 46.1847 139.331 46.9336 137.022 46.9336C135.436 46.9335 133.882 46.4981 132.532 45.6758C131.182 44.8536 130.091 43.6769 129.379 42.2772V42.2742C128.78 41.0973 128.469 39.7985 128.469 38.4815C128.469 37.1641 128.781 35.8649 129.379 34.6877L129.379 34.6873C130.091 33.2875 131.182 32.1109 132.532 31.2886C133.882 30.4664 135.436 30.0309 137.022 30.0308C139.146 30.0063 141.197 30.7951 142.745 32.2317L140.304 34.6438Z" fill="white"/></g></g><rect x="0.513672" y="0.5" width="223.987" height="77" rx="38.5" stroke="#17181A"/><defs><clipPath id="clip0_2427_89429"><rect width="53.7157" height="26" fill="white" transform="translate(44.75 26)"/></clipPath><clipPath id="clip1_2427_89429"><rect width="53.7157" height="24.5556" fill="white" transform="translate(44.75 26.7222)"/></clipPath><clipPath id="clip2_2427_89429"><rect width="51.8003" height="26" fill="white" transform="translate(128.465 26)"/></clipPath><clipPath id="clip3_2427_89429"><rect width="51.8003" height="23.1112" fill="white" transform="translate(128.465 27.4443)"/></clipPath></defs></svg>