<svg width="225" height="78" viewBox="0 0 225 78" fill="none" xmlns="http://www.w3.org/2000/svg"><g clip-path="url(#clip0_2427_89426)"><path d="M100.065 31.3171H94.6767C94.308 31.3171 93.9944 31.585 93.9369 31.949L91.7576 45.7661C91.7143 46.0387 91.9254 46.2845 92.202 46.2845H94.7744C95.1431 46.2845 95.4567 46.0166 95.5142 45.6518L96.102 41.9252C96.1587 41.5604 96.4731 41.2925 96.841 41.2925H98.5468C102.096 41.2925 104.145 39.5749 104.68 36.1713C104.921 34.6822 104.69 33.5122 103.993 32.6928C103.227 31.793 101.869 31.3171 100.065 31.3171ZM100.687 36.3635C100.392 38.297 98.9147 38.297 97.4863 38.297H96.6732L97.2436 34.6861C97.2775 34.4679 97.4666 34.3071 97.6872 34.3071H98.0599C99.0329 34.3071 99.9508 34.3071 100.425 34.8618C100.708 35.1927 100.795 35.6844 100.687 36.3635Z" fill="white"/><path d="M116.173 36.3013H113.593C113.373 36.3013 113.183 36.462 113.149 36.6802L113.035 37.4019L112.854 37.1404C112.296 36.3296 111.05 36.0586 109.807 36.0586C106.956 36.0586 104.52 38.2182 104.046 41.2476C103.799 42.7587 104.15 44.2037 105.007 45.2114C105.793 46.1379 106.919 46.524 108.257 46.524C110.555 46.524 111.829 45.0467 111.829 45.0467L111.714 45.7637C111.67 46.0379 111.881 46.2837 112.156 46.2837H114.481C114.85 46.2837 115.162 46.0158 115.22 45.651L116.615 36.8197C116.659 36.5479 116.449 36.3013 116.173 36.3013ZM112.576 41.3232C112.327 42.7973 111.157 43.7869 109.665 43.7869C108.916 43.7869 108.317 43.5466 107.933 43.0912C107.551 42.639 107.406 41.9953 107.528 41.2783C107.76 39.8168 108.95 38.7949 110.419 38.7949C111.152 38.7949 111.747 39.0384 112.14 39.4977C112.533 39.9618 112.689 40.6094 112.576 41.3232Z" fill="white"/><path d="M129.922 36.3015H127.329C127.082 36.3015 126.85 36.4244 126.709 36.6301L123.133 41.8978L121.617 36.8357C121.522 36.519 121.23 36.3015 120.899 36.3015H118.351C118.041 36.3015 117.826 36.6041 117.925 36.8956L120.781 45.277L118.095 49.0675C117.884 49.3661 118.097 49.7766 118.462 49.7766H121.052C121.297 49.7766 121.528 49.6569 121.667 49.4552L130.291 37.0067C130.498 36.7088 130.286 36.3015 129.922 36.3015Z" fill="white"/><path d="M138.503 31.3171H133.113C132.745 31.3171 132.432 31.585 132.374 31.949L130.195 45.7661C130.152 46.0387 130.363 46.2845 130.638 46.2845H133.403C133.66 46.2845 133.88 46.097 133.92 45.8417L134.539 41.9252C134.595 41.5604 134.91 41.2925 135.278 41.2925H136.983C140.533 41.2925 142.581 39.5749 143.116 36.1713C143.358 34.6822 143.126 33.5122 142.429 32.6928C141.664 31.793 140.306 31.3171 138.503 31.3171ZM139.124 36.3635C138.83 38.297 137.353 38.297 135.924 38.297H135.112L135.683 34.6861C135.717 34.4679 135.904 34.3071 136.126 34.3071H136.498C137.47 34.3071 138.389 34.3071 138.863 34.8618C139.146 35.1927 139.232 35.6844 139.124 36.3635Z" fill="white"/><path d="M154.607 36.3013H152.028C151.807 36.3013 151.619 36.462 151.586 36.6802L151.471 37.4019L151.29 37.1404C150.732 36.3296 149.487 36.0586 148.243 36.0586C145.392 36.0586 142.958 38.2182 142.483 41.2476C142.237 42.7587 142.586 44.2037 143.444 45.2114C144.232 46.1379 145.355 46.524 146.694 46.524C148.991 46.524 150.265 45.0467 150.265 45.0467L150.15 45.7637C150.107 46.0379 150.318 46.2837 150.594 46.2837H152.918C153.286 46.2837 153.599 46.0158 153.657 45.651L155.052 36.8197C155.095 36.5479 154.884 36.3013 154.607 36.3013ZM151.01 41.3232C150.763 42.7973 149.592 43.7869 148.099 43.7869C147.352 43.7869 146.751 43.5466 146.367 43.0912C145.985 42.639 145.842 41.9953 145.962 41.2783C146.196 39.8168 147.384 38.7949 148.853 38.7949C149.586 38.7949 150.182 39.0384 150.574 39.4977C150.969 39.9618 151.125 40.6094 151.01 41.3232Z" fill="white"/><path d="M157.653 31.6967L155.441 45.7666C155.398 46.0392 155.609 46.285 155.884 46.285H158.107C158.477 46.285 158.79 46.0172 158.847 45.6524L161.028 31.8361C161.071 31.5635 160.86 31.3169 160.585 31.3169H158.096C157.876 31.3177 157.687 31.4784 157.653 31.6967Z" fill="white"/><path d="M69.383 48.9702L69.795 46.3529L68.8771 46.3316H64.4941L67.5401 27.0183C67.5496 26.96 67.5803 26.9056 67.6252 26.867C67.6701 26.8284 67.7276 26.8071 67.7875 26.8071H75.1778C77.6313 26.8071 79.3245 27.3177 80.2085 28.3254C80.6229 28.7981 80.8868 29.2921 81.0145 29.8357C81.1484 30.4062 81.1508 31.0877 81.02 31.9189L81.0105 31.9796V32.5122L81.425 32.747C81.774 32.9321 82.0513 33.144 82.264 33.3867C82.6186 33.7909 82.8479 34.3046 82.9448 34.9136C83.0448 35.54 83.0118 36.2853 82.8479 37.1291C82.6588 38.0998 82.3531 38.9452 81.9402 39.637C81.5605 40.2744 81.0767 40.803 80.5023 41.2127C79.954 41.6019 79.3024 41.8974 78.5657 42.0865C77.8519 42.2724 77.038 42.3662 76.1454 42.3662H75.5702C75.1589 42.3662 74.7595 42.5143 74.4459 42.7798C74.1315 43.0508 73.9235 43.4212 73.8597 43.8261L73.8164 44.0617L73.0884 48.6747L73.0553 48.8441C73.0466 48.8977 73.0316 48.9245 73.0096 48.9426C72.9899 48.9592 72.9615 48.9702 72.9339 48.9702H69.383Z" fill="#253B80"/><path d="M81.8147 32.0405C81.7926 32.1816 81.7674 32.3257 81.7391 32.4739C80.7644 37.4777 77.4301 39.2063 73.1716 39.2063H71.0034C70.4826 39.2063 70.0437 39.5845 69.9626 40.0982L68.8524 47.1387L68.5381 49.1344C68.4853 49.4716 68.7453 49.7757 69.0857 49.7757H72.9313C73.3867 49.7757 73.7736 49.4448 73.8453 48.9957L73.8831 48.8003L74.6071 44.2054L74.6536 43.9533C74.7245 43.5026 75.1122 43.1717 75.5676 43.1717H76.1427C79.8686 43.1717 82.7854 41.659 83.6379 37.2815C83.994 35.4528 83.8096 33.9259 82.8673 32.852C82.5821 32.5282 82.2283 32.2596 81.8147 32.0405Z" fill="#CBCBCB"/><path d="M80.7994 31.6345C80.6505 31.5912 80.4969 31.5518 80.3393 31.5163C80.1809 31.4816 80.0186 31.4509 79.8516 31.4241C79.267 31.3296 78.6264 31.2847 77.9402 31.2847H72.1477C72.005 31.2847 71.8695 31.317 71.7482 31.3753C71.4811 31.5037 71.2826 31.7566 71.2345 32.0662L70.0023 39.871L69.9668 40.0987C70.0479 39.585 70.4868 39.2068 71.0076 39.2068H73.1758C77.4344 39.2068 80.7687 37.4774 81.7433 32.4744C81.7724 32.3262 81.7969 32.1821 81.8189 32.041C81.5723 31.9102 81.3052 31.7984 81.0176 31.703C80.9467 31.6794 80.8735 31.6565 80.7994 31.6345Z" fill="#9A9A9A"/><path d="M71.2309 32.0659C71.279 31.7563 71.4776 31.5033 71.7446 31.3757C71.8668 31.3174 72.0015 31.2851 72.1441 31.2851H77.9366C78.6229 31.2851 79.2634 31.33 79.848 31.4246C80.0151 31.4513 80.1774 31.4821 80.3357 31.5167C80.4933 31.5522 80.6469 31.5916 80.7958 31.6349C80.8699 31.657 80.9432 31.6798 81.0149 31.7027C81.3025 31.798 81.5695 31.9107 81.8162 32.0407C82.1061 30.1915 81.8138 28.9325 80.814 27.7924C79.7117 26.5373 77.7223 26 75.1767 26H67.7863C67.2663 26 66.8227 26.3782 66.7424 26.8927L63.6641 46.4045C63.6035 46.7906 63.9013 47.1388 64.2905 47.1388H68.8531L69.9987 39.8706L71.2309 32.0659Z" fill="white"/></g><rect x="0.513672" y="0.5" width="223.987" height="77" rx="38.5" stroke="#17181A"/><defs><clipPath id="clip0_2427_89426"><rect width="97.6975" height="26" fill="white" transform="translate(63.6582 26)"/></clipPath></defs></svg>