<svg width="223" height="78" viewBox="0 0 223 78" fill="none" xmlns="http://www.w3.org/2000/svg"><g clip-path="url(#clip0_2427_89421)"><path fill-rule="evenodd" clip-rule="evenodd" d="M155.006 35.9932C155.006 37.373 153.882 38.4917 152.494 38.4917C151.107 38.4917 149.982 37.373 149.982 35.9932C149.982 34.6133 151.107 33.4946 152.494 33.4946C153.882 33.4946 155.006 34.6133 155.006 35.9932Z" fill="white"/><path fill-rule="evenodd" clip-rule="evenodd" d="M155.006 43.8125C155.006 45.1923 153.882 46.3111 152.494 46.3111C151.107 46.3111 149.982 45.1923 149.982 43.8125C149.982 42.4327 151.107 41.314 152.494 41.314C153.882 41.314 155.006 42.4327 155.006 43.8125Z" fill="white"/><path fill-rule="evenodd" clip-rule="evenodd" d="M73.2679 37.0941H71.2659V32.3433H73.2679C74.6925 32.3433 75.4881 33.3263 75.4881 34.7431C75.4881 36.2557 74.5952 37.0941 73.2679 37.0941ZM73.7032 29.4628H67.3086V46.0232H71.2659V39.9747H73.7032C76.9116 39.9747 79.3255 37.9833 79.3255 34.5985C79.3255 31.671 77.5149 29.4628 73.7032 29.4628ZM100.134 33.7829L97.4793 41.0969L94.4311 33.7829H90.4789L95.684 45.4472L94.0604 49.4573H97.7343L103.97 33.7829H100.134ZM128.653 33.2787V33.7829H126.601V36.3989H128.653V46.0232H132.489V36.3989H135.144V33.7829H132.489V33.1349C132.489 32.0548 132.924 31.2867 134.106 31.2867C134.468 31.2867 134.926 31.3588 135.24 31.4547V28.7187C134.709 28.5747 134.106 28.4788 133.406 28.4788C130.293 28.4788 128.653 30.3747 128.653 33.2787ZM121.635 43.3351C121.273 43.5992 120.718 43.8153 120.115 43.8153C119.149 43.8153 118.498 43.2632 118.498 42.3751C118.498 41.3671 119.296 40.3811 121.635 40.7671V43.3351ZM120.887 33.495C118.498 33.495 116.616 34.2391 115.457 34.959L116.519 37.1431C117.219 36.8311 118.691 36.279 119.946 36.279C120.838 36.279 121.635 36.591 121.635 37.5271V38.3431C116.313 37.9665 114.783 40.2952 114.783 42.4457C114.783 44.5472 116.572 46.3113 118.927 46.3113C119.856 46.3113 120.864 45.962 121.635 45.4806V46.0232H125.496V37.5031C125.496 34.7431 123.734 33.495 120.887 33.495ZM86.5252 43.3351C86.1635 43.5992 85.6084 43.8153 85.0051 43.8153C84.0399 43.8153 83.3884 43.2632 83.3884 42.3751C83.3884 41.3671 84.187 40.3811 86.5252 40.7671V43.3351ZM85.6332 33.495C83.2443 33.495 81.3623 34.2391 80.2039 34.959L81.2657 37.1431C81.9654 36.8311 83.4375 36.279 84.6921 36.279C85.585 36.279 86.3813 36.591 86.3813 37.5271V38.3431C81.0595 37.9665 79.53 40.2952 79.53 42.4457C79.53 44.5472 81.3186 46.3113 83.673 46.3113C84.6021 46.3113 85.61 45.962 86.3813 45.4806V46.0232H90.2422V37.5031C90.2422 34.7431 88.4806 33.495 85.6332 33.495ZM107.942 37.239C107.942 36.6631 108.521 36.303 109.487 36.303C110.5 36.303 111.562 36.6631 112.334 36.9991L113.42 34.479C112.406 33.975 110.862 33.495 109.294 33.495C106.422 33.495 104.106 34.791 104.106 37.383C104.106 41.4632 109.897 40.7191 109.897 42.5191C109.897 43.1911 109.221 43.5271 108.087 43.5271C106.929 43.5271 105.819 43.1432 104.95 42.7111L103.719 45.1833C105.167 45.9511 106.856 46.3113 108.425 46.3113C111.224 46.3113 113.637 44.8712 113.637 42.2311C113.637 38.199 107.942 38.871 107.942 37.239ZM141.526 36.1831C142.588 36.1831 143.432 37.0231 143.577 38.6551H139.475C139.62 37.0231 140.464 36.1831 141.526 36.1831ZM147.476 40.6712V39.715C147.476 36.1257 144.952 33.495 141.526 33.495C138.099 33.495 135.445 36.2071 135.445 39.9752C135.445 43.8391 137.955 46.3113 141.96 46.3113C143.077 46.3113 145.286 46.1107 146.989 44.938L145.912 42.5586C144.758 43.2099 143.588 43.5031 142.539 43.5031C142.448 43.5031 142.359 43.4997 142.27 43.4947C142.25 43.4935 142.23 43.4923 142.21 43.4909C142.126 43.4849 142.043 43.4767 141.962 43.4659C141.943 43.4635 141.925 43.4602 141.907 43.4576C141.841 43.4478 141.776 43.4362 141.712 43.4231C141.689 43.4184 141.666 43.4145 141.644 43.4095C141.578 43.3946 141.514 43.3771 141.45 43.3584C141.415 43.3482 141.381 43.3379 141.347 43.3269C141.301 43.3119 141.257 43.2953 141.212 43.2782C141.161 43.2586 141.112 43.238 141.064 43.2161C141.049 43.2096 141.035 43.2027 141.021 43.1959C140.943 43.1587 140.867 43.1189 140.796 43.0759C140.793 43.0747 140.791 43.0733 140.789 43.0721C140.629 42.9753 140.486 42.8646 140.358 42.742C140.356 42.7401 140.354 42.7384 140.352 42.7365C140.299 42.6858 140.25 42.6326 140.202 42.578C140.184 42.5567 140.165 42.5355 140.148 42.5134C140.12 42.4796 140.094 42.4453 140.068 42.4105C140.025 42.3508 139.982 42.2903 139.943 42.2256C139.942 42.2237 139.941 42.222 139.94 42.2201C139.697 41.813 139.535 41.3006 139.475 40.6714V40.6712H147.476Z" fill="white"/></g><rect x="0.880859" y="0.5" width="220.633" height="77" rx="38.5" stroke="#17181A"/><defs><clipPath id="clip0_2427_89421"><rect width="87.798" height="21.0425" fill="white" transform="translate(67.2988 28.4788)"/></clipPath></defs></svg>