<svg width="223" height="78" viewBox="0 0 223 78" fill="none" xmlns="http://www.w3.org/2000/svg"><path fill-rule="evenodd" clip-rule="evenodd" d="M123.559 33.9807C124.843 33.9807 125.883 32.9416 125.883 31.6603C125.883 30.3782 124.843 29.3381 123.559 29.3381C122.277 29.3381 121.237 30.3782 121.237 31.6603C121.237 32.9416 122.277 33.9807 123.559 33.9807ZM105.758 35.2338C105.653 35.497 104.898 37.6273 103.072 39.8351V30.3947L98.2078 31.3552V48.4671H103.072V43.1776C104.481 45.2887 105.177 48.4671 105.177 48.4671H111.003C110.427 46.0733 107.906 41.6596 107.906 41.6596C110.169 38.7936 111.163 35.7397 111.321 35.2338H105.758ZM118.546 35.0552C114.189 35.1949 111.977 37.1478 111.977 41.0299V48.4671H116.731V42.4023C116.731 40.0776 117.035 39.0812 119.796 38.9862V35.1233C119.332 35.0247 118.546 35.0552 118.546 35.0552ZM90.0496 37.1181C89.4538 37.0789 88.0744 36.9899 88.0744 35.7492C88.0744 34.2521 90.0604 34.2521 90.8053 34.2521C92.115 34.2521 93.8113 34.6388 95.0227 35.0008C95.0227 35.0008 95.6984 35.2388 96.2735 35.4825L96.327 35.497V31.3968L96.2535 31.3751C94.8239 30.8754 93.1616 30.3947 90.0796 30.3947C84.7657 30.3947 82.8828 33.4874 82.8828 36.1369C82.8828 37.6642 83.5381 41.2587 89.6239 41.6733C90.1398 41.705 91.509 41.7838 91.509 43.0659C91.509 44.1244 90.388 44.7486 88.5026 44.7486C86.4365 44.7486 84.4323 44.2222 83.2149 43.723V47.9459C85.0374 48.4231 87.0918 48.6616 89.4995 48.6616C94.6953 48.6616 97.0224 45.7355 97.0224 42.8354C97.0224 39.547 94.4184 37.4105 90.0496 37.1181ZM121.203 48.4671H125.918V35.2487H121.203V48.4671ZM134.796 31.2374V48.4671H139.511V30.3947L134.796 31.2374ZM127.915 31.2374L132.626 30.3947V48.4671H127.915V31.2374Z" fill="white"/><rect x="0.880859" y="0.5" width="220.633" height="77" rx="38.5" stroke="#17181A"/></svg>