<svg width="223" height="78" viewBox="0 0 223 78" fill="none" xmlns="http://www.w3.org/2000/svg"><g clip-path="url(#clip0_2427_89370)"><g clip-path="url(#clip1_2427_89370)"><path fill-rule="evenodd" clip-rule="evenodd" d="M77.0383 39.3159C77.0383 35.5452 75.2261 32.5698 71.7625 32.5698C68.2842 32.5698 66.1797 35.5452 66.1797 39.2865C66.1797 43.7201 68.6642 45.9589 72.2301 45.9589C73.9693 45.9589 75.2846 45.5612 76.2784 45.0015V42.0556C75.2846 42.5564 74.1446 42.8657 72.6978 42.8657C71.2802 42.8657 70.0233 42.3649 69.8626 40.6269H77.0091C77.0091 40.4354 77.0383 39.6694 77.0383 39.3159ZM69.8187 37.9166C69.8187 36.2522 70.8271 35.5599 71.7479 35.5599C72.6393 35.5599 73.5893 36.2522 73.5893 37.9166H69.8187Z" fill="white"/><path fill-rule="evenodd" clip-rule="evenodd" d="M60.5372 32.5698C59.105 32.5698 58.1843 33.2474 57.6728 33.7187L57.4828 32.8055H54.2676V49.9801L57.9212 49.1994L57.9358 45.031C58.462 45.4139 59.2365 45.9589 60.5226 45.9589C63.1386 45.9589 65.5208 43.8379 65.5208 39.1686C65.5062 34.8971 63.0948 32.5698 60.5372 32.5698ZM59.6604 42.7184C58.7981 42.7184 58.2866 42.4091 57.9358 42.0262L57.9212 36.5615C58.3012 36.1344 58.8273 35.8398 59.6604 35.8398C60.9903 35.8398 61.911 37.3422 61.911 39.2717C61.911 41.2455 61.0049 42.7184 59.6604 42.7184Z" fill="white"/><path fill-rule="evenodd" clip-rule="evenodd" d="M49.2422 31.7015L52.9105 30.9061V27.916L49.2422 28.6967V31.7015Z" fill="white"/><path d="M52.9105 32.8203H49.2422V45.7086H52.9105V32.8203Z" fill="white"/><path fill-rule="evenodd" clip-rule="evenodd" d="M45.3144 33.9102L45.0806 32.8202H41.9238V45.7085H45.5775V36.9739C46.4397 35.8398 47.9012 36.046 48.3543 36.208V32.8202C47.8866 32.6435 46.1767 32.3194 45.3144 33.9102Z" fill="white"/><path fill-rule="evenodd" clip-rule="evenodd" d="M38.0005 29.6245L34.4345 30.3904L34.4199 42.1888C34.4199 44.3687 36.0421 45.9743 38.2051 45.9743C39.4035 45.9743 40.2804 45.7533 40.7627 45.4882V42.4981C40.295 42.6896 37.9859 43.3671 37.9859 41.1872V35.9582H40.7627V32.8208H37.9859L38.0005 29.6245Z" fill="white"/><path fill-rule="evenodd" clip-rule="evenodd" d="M28.1233 36.5615C28.1233 35.9871 28.5909 35.7661 29.3655 35.7661C30.4762 35.7661 31.8792 36.1049 32.9899 36.7088V33.2474C31.7769 32.7613 30.5785 32.5698 29.3655 32.5698C26.3988 32.5698 24.4258 34.1312 24.4258 36.7383C24.4258 40.8036 29.9793 40.1555 29.9793 41.9083C29.9793 42.5859 29.3948 42.8068 28.5763 42.8068C27.3633 42.8068 25.8142 42.306 24.5865 41.6285V45.1341C25.9457 45.7233 27.3195 45.9737 28.5763 45.9737C31.6162 45.9737 33.7061 44.4565 33.7061 41.82C33.6914 37.4306 28.1233 38.2112 28.1233 36.5615Z" fill="white"/></g><g clip-path="url(#clip2_2427_89370)"><path d="M105.912 44.5063H103.17L104.885 33.9446H107.628L105.912 44.5063Z" fill="#CBCBCB"/><path d="M115.853 34.204C115.313 33.9903 114.455 33.7544 113.394 33.7544C110.686 33.7544 108.778 35.1925 108.767 37.2486C108.744 38.7655 110.132 39.6081 111.17 40.1139C112.231 40.6307 112.592 40.9681 112.592 41.4288C112.581 42.1364 111.735 42.4625 110.945 42.4625C109.85 42.4625 109.263 42.2944 108.372 41.9007L108.011 41.732L107.627 44.1028C108.27 44.3946 109.455 44.6536 110.686 44.6649C113.563 44.6649 115.436 43.2491 115.459 41.058C115.47 39.8557 114.737 38.9344 113.157 38.1816C112.197 37.6984 111.61 37.3725 111.61 36.8781C111.621 36.4286 112.107 35.9682 113.19 35.9682C114.081 35.9456 114.736 36.159 115.232 36.3726L115.481 36.4847L115.853 34.204Z" fill="#CBCBCB"/><path d="M119.499 40.7651C119.725 40.1584 120.594 37.81 120.594 37.81C120.582 37.8326 120.819 37.1921 120.955 36.7989L121.146 37.7089C121.146 37.7089 121.666 40.2371 121.778 40.7651C121.35 40.7651 120.041 40.7651 119.499 40.7651ZM122.884 33.9451H120.763C120.109 33.9451 119.612 34.1359 119.329 34.8214L115.256 44.5066H118.133C118.133 44.5066 118.607 43.203 118.709 42.9223C119.025 42.9223 121.824 42.9223 122.23 42.9223C122.309 43.2931 122.557 44.5066 122.557 44.5066H125.096L122.884 33.9451Z" fill="#CBCBCB"/><path d="M100.878 33.9441L98.1925 41.1462L97.899 39.6855C97.4025 38.0001 95.8452 36.1689 94.1074 35.2584L96.5675 44.4946H99.4675L103.778 33.9441H100.878Z" fill="#CBCBCB"/><path d="M95.7016 33.9451H91.2893L91.2441 34.1585C94.686 35.0349 96.9655 37.1476 97.902 39.6869L96.9428 34.8329C96.7849 34.1583 96.2996 33.9673 95.7016 33.9451Z" fill="#CBCBCB"/></g><path d="M147.415 33.7866H141.5V44.3692H147.415V33.7866Z" fill="#9A9A9A"/><path d="M141.896 39.0772C141.896 36.9271 142.911 35.0188 144.468 33.7859C143.322 32.8884 141.876 32.3459 140.299 32.3459C136.562 32.3459 133.539 35.3565 133.539 39.0772C133.539 42.7978 136.562 45.8084 140.299 45.8084C141.876 45.8084 143.322 45.266 144.468 44.3685C142.908 43.1529 141.896 41.2272 141.896 39.0772Z" fill="#CBCBCB"/><path d="M155.4 39.0772C155.4 42.7978 152.377 45.8084 148.64 45.8084C147.063 45.8084 145.617 45.266 144.471 44.3685C146.048 43.1333 147.043 41.2272 147.043 39.0772C147.043 36.9271 146.028 35.0188 144.471 33.7859C145.615 32.8884 147.061 32.3459 148.638 32.3459C152.377 32.3459 155.4 35.3761 155.4 39.0772Z" fill="#CBCBCB"/><path d="M171.362 44.6299V39.8302H176.465L177.013 40.541L177.578 39.8302H196.102V44.2989C196.102 44.2989 195.618 44.6251 195.058 44.6299H184.801L184.183 43.8733V44.6299H182.16V43.3384C182.16 43.3384 181.884 43.5186 181.287 43.5186H180.598V44.6299H177.535L176.988 43.9039L176.433 44.6299L171.362 44.6299ZM165.402 36.2128L166.553 33.541H168.543L169.196 35.0376V33.541H171.671L172.059 34.6227L172.436 33.541H183.542V34.0848C183.542 34.0848 184.126 33.541 185.085 33.541L188.689 33.5536L189.331 35.0306V33.541H191.401L191.971 34.3894V33.541H194.06V38.3407H191.971L191.425 37.4895V38.3407H188.383L188.077 37.5841H187.259L186.958 38.3407H184.895C184.07 38.3407 183.542 37.808 183.542 37.808V38.3407H180.432L179.814 37.5841V38.3407H168.249L167.943 37.5841H167.128L166.824 38.3407H165.402V36.2128Z" fill="#CBCBCB"/><path d="M166.962 34.1339L165.41 37.7277H166.421L166.707 37.0081H168.372L168.657 37.7277H169.69L168.139 34.1339H166.962ZM167.537 34.9703L168.044 36.2279H167.028L167.537 34.9703ZM169.797 37.7271V34.1333L171.233 34.1386L172.068 36.4557L172.883 34.1333H174.308V37.7271H173.406V35.079L172.449 37.7271H171.658L170.699 35.079V37.7271H169.797ZM174.925 37.7271V34.1333H177.869V34.9372H175.837V35.5519H177.822V36.3085H175.837V36.9469H177.869V37.7271H174.925ZM178.392 34.1339V37.7277H179.294V36.451H179.674L180.756 37.7277H181.858L180.671 36.4037C181.158 36.3627 181.661 35.9463 181.661 35.2998C181.661 34.5436 181.065 34.1339 180.4 34.1339H178.392ZM179.294 34.9378H180.325C180.573 34.9378 180.753 35.1305 180.753 35.3161C180.753 35.5548 180.519 35.6944 180.339 35.6944H179.294V34.9378ZM182.95 37.7271H182.029V34.1333H182.95V37.7271ZM185.135 37.7271H184.936C183.974 37.7271 183.39 36.9723 183.39 35.945C183.39 34.8923 183.967 34.1333 185.182 34.1333H186.179V34.9845H185.146C184.653 34.9845 184.304 35.3678 184.304 35.9538C184.304 36.6498 184.703 36.9422 185.277 36.9422H185.515L185.135 37.7271ZM187.098 34.1339L185.546 37.7277H186.556L186.843 37.0081H188.508L188.793 37.7277H189.826L188.275 34.1339H187.098ZM187.672 34.9703L188.18 36.2279H187.163L187.672 34.9703ZM189.931 37.7271V34.1333H191.078L192.543 36.3913V34.1333H193.445V37.7271H192.335L190.833 35.4101V37.7271H189.931ZM171.981 44.0163V40.4225H174.925V41.2264H172.893V41.8411H174.878V42.5977H172.893V43.2361H174.925V44.0163H171.981ZM186.407 44.0163V40.4225H189.352V41.2264H187.319V41.8411H189.295V42.5977H187.319V43.2361H189.352V44.0163H186.407ZM175.039 44.0163L176.473 42.2416L175.005 40.4225H176.142L177.016 41.547L177.893 40.4225H178.985L177.537 42.2194L178.973 44.0163H177.837L176.988 42.9095L176.16 44.0163H175.039ZM179.08 40.4231V44.0169H180.006V42.8821H180.956C181.76 42.8821 182.369 42.4575 182.369 41.6319C182.369 40.9479 181.891 40.4231 181.073 40.4231H179.08ZM180.006 41.2359H181.006C181.266 41.2359 181.452 41.3943 181.452 41.6496C181.452 41.8895 181.267 42.0634 181.003 42.0634H180.006V41.2359ZM182.76 40.4225V44.0163H183.663V42.7395H184.043L185.124 44.0163H186.227L185.04 42.6923C185.527 42.6513 186.03 42.2349 186.03 41.5884C186.03 40.8321 185.434 40.4225 184.768 40.4225H182.76ZM183.663 41.2264H184.694C184.941 41.2264 185.121 41.4191 185.121 41.6047C185.121 41.8434 184.888 41.983 184.707 41.983H183.663V41.2264ZM189.769 44.0163V43.2361H191.575C191.842 43.2361 191.958 43.0923 191.958 42.9346C191.958 42.7835 191.843 42.6308 191.575 42.6308H190.759C190.05 42.6308 189.655 42.2005 189.655 41.5544C189.655 40.9782 190.017 40.4225 191.071 40.4225H192.828L192.448 41.2311H190.928C190.638 41.2311 190.548 41.3829 190.548 41.5278C190.548 41.6768 190.659 41.8411 190.881 41.8411H191.735C192.526 41.8411 192.869 42.2877 192.869 42.8726C192.869 43.5013 192.487 44.0163 191.692 44.0163H189.769ZM193.081 44.0163V43.2361H194.887C195.154 43.2361 195.269 43.0923 195.269 42.9346C195.269 42.7835 195.154 42.6308 194.887 42.6308H194.071C193.361 42.6308 192.966 42.2005 192.966 41.5544C192.966 40.9782 193.328 40.4225 194.382 40.4225H196.139L195.759 41.2311H194.24C193.949 41.2311 193.86 41.3829 193.86 41.5278C193.86 41.6768 193.97 41.8411 194.192 41.8411H195.047C195.837 41.8411 196.181 42.2877 196.181 42.8726C196.181 43.5013 195.798 44.0163 195.004 44.0163H193.081Z" fill="#050607"/></g><rect x="0.880859" y="0.5" width="220.633" height="77" rx="38.5" stroke="#17181A"/><defs><clipPath id="clip0_2427_89370"><rect width="173.633" height="26" fill="white" transform="translate(24.3809 26)"/></clipPath><clipPath id="clip1_2427_89370"><rect width="52.7222" height="22.7987" fill="white" transform="translate(24.3809 27.6006)"/></clipPath><clipPath id="clip2_2427_89370"><rect width="33.8542" height="10.9105" fill="white" transform="translate(91.2422 33.7559)"/></clipPath></defs></svg>