  <svg
        width="20"
        height="21"
        viewBox="0 0 20 21"
        fill="none"
        xmlns="http://www.w3.org/2000/svg"
    >
        <path
            d="M9.347 17.3651C9.347 17.8354 8.87678 18.1489 8.44575 17.966C6.86529 17.2868 4.80154 16.6598 3.36476 16.4769L3.11659 16.4508C2.31983 16.3463 1.66675 15.6017 1.66675 14.7919V4.73401C1.66675 3.72823 2.47657 2.98368 3.46926 3.06206C5.10196 3.19268 7.51837 3.97641 9.03352 4.83851C9.24251 4.95607 9.347 5.17813 9.347 5.40018V17.3651ZM18.3334 14.7788C18.3334 15.5887 17.6803 16.3332 16.8836 16.4377L16.6093 16.4638C15.1856 16.6598 13.1349 17.2737 11.5544 17.9399C11.1234 18.1227 10.6532 17.8092 10.6532 17.339V5.38712C10.6532 5.152 10.7707 4.92995 10.9797 4.81239C12.4949 3.96335 14.859 3.20574 16.4656 3.06206H16.5178C17.5236 3.06206 18.3334 3.87191 18.3334 4.8777V14.7788Z"
            fill="#9A9A9A"
        />
    </svg>