<svg
    width="20"
    height="21"
    viewBox="0 0 20 21"
    fill="none"
    xmlns="http://www.w3.org/2000/svg"
>
    <path
        fill-rule="evenodd"
        clip-rule="evenodd"
        d="M13.1224 18.9029C13.5052 18.2639 13.8206 17.1483 13.8879 16.5042C14.0135 14.9232 13.9522 13.5187 13.5052 11.9907C13.4155 11.714 13.3159 11.4379 13.2042 11.1661C12.3096 11.9572 11.2392 12.7407 9.96448 13.5733C8.71448 12.7568 7.66094 11.9876 6.77703 11.2121C6.6729 11.469 6.57944 11.7296 6.49481 11.9907C6.04775 13.5187 5.98652 14.9232 6.11207 16.5042C6.17943 17.1483 6.49481 18.2639 6.87759 18.9029C4.01301 18.0348 1.9666 16.1981 0.833252 13.3647C1.94148 14.9509 4.28721 14.8302 4.29214 11.4069C4.29415 10.0089 4.49767 8.43402 5.03028 6.96946L5.06417 6.79798C5.06973 6.80972 5.07531 6.82144 5.08092 6.83317C5.88544 4.71366 7.39437 2.8464 10.0001 2.11499C12.5674 2.83557 14.0698 4.65864 14.883 6.73925C14.8893 6.7256 14.8956 6.71196 14.9019 6.69832L14.9463 6.90552C15.4964 8.38809 15.7058 9.98854 15.7078 11.4069C15.7128 14.8302 18.0585 14.9509 19.1667 13.3647C18.0334 16.1981 15.987 18.0348 13.1224 18.9029ZM12.5815 9.93566C12.3143 9.50718 12.0009 9.10976 11.6302 8.76325C11.1729 8.3713 10.6177 8.04875 10.0001 8.03548C9.38262 8.04875 8.82706 8.3713 8.36978 8.76325C7.9867 9.12133 7.66485 9.53378 7.39188 9.97867C8.10256 10.6348 8.95194 11.2328 9.96448 11.7349C10.9991 11.2219 11.8627 10.6086 12.5815 9.93566Z"
        fill="#9A9A9A"
    />
</svg>