<svg
        width="48"
        height="48"
        viewBox="0 0 48 48"
        fill="none"
        xmlns="http://www.w3.org/2000/svg"
    >
        <g filter="url(#filter0_b_2194_71660)">
            <rect
                width="48"
                height="48"
                rx="14"
                fill="white"
                fill-opacity="0.04"
            />
            <g clip-path="url(#clip0_2194_71660)">
                <path
                    fill-rule="evenodd"
                    clip-rule="evenodd"
                    d="M35.9999 24C35.9999 21.314 35.8225 18.6309 35.4688 15.9682C35.3571 15.1026 34.9639 14.2976 34.3497 13.6774C33.7355 13.0573 32.9344 12.6562 32.0699 12.5361C26.7264 11.823 21.312 11.8213 15.9681 12.5311C15.1024 12.6428 14.2975 13.0361 13.6773 13.6503C13.0572 14.2644 12.6561 15.0655 12.536 15.93C11.823 21.2726 11.8213 26.6861 12.5309 32.0291C12.6455 32.9011 13.0447 33.7109 13.6665 34.3329C14.2883 34.9548 15.0979 35.3542 15.9699 35.4691C18.6124 35.8202 21.2751 35.9976 23.9408 36.0002C26.6462 36.0029 29.3489 35.8255 32.0308 35.4693C32.8966 35.3576 33.7017 34.9644 34.3221 34.3501C34.9424 33.7359 35.3436 32.9347 35.4638 32.07C35.8208 29.3948 35.9999 26.6989 35.9999 24ZM28.864 19.913C28.864 21.2079 27.8285 21.9227 27.1373 22.2775C28.3354 22.2846 29.0082 22.3308 29.5298 22.6319C29.9332 22.8649 30.2683 23.1999 30.5012 23.6034C30.8569 24.2194 30.8569 25.0465 30.8569 26.7006C30.8569 28.3548 30.8569 29.1818 30.5012 29.7979C30.2683 30.2013 29.9332 30.5363 29.5298 30.7693C28.9138 31.125 28.0867 31.125 26.4326 31.125H21.567C19.9129 31.125 19.0858 31.125 18.4698 30.7693C18.0663 30.5363 17.7313 30.2013 17.4984 29.7979C17.1426 29.1818 17.1426 28.3548 17.1426 26.7006C17.1426 25.0465 17.1426 24.2194 17.4984 23.6034C17.7313 23.1999 18.0663 22.8649 18.4698 22.6319C18.9925 22.3301 19.6672 22.2844 20.8703 22.2775C19.3879 21.5413 19.1401 20.4998 19.1327 19.913C19.134 19.5527 19.2078 19.1964 19.3496 18.8651C19.4914 18.5339 19.6983 18.2346 19.9581 17.985C20.3923 17.5463 20.9804 17.2943 21.5974 17.2824C22.8953 17.3204 23.5083 18.6442 23.9556 19.6109L23.9563 19.6123L23.9904 19.7036C24.4033 18.1781 25.3059 17.2824 26.4115 17.2824C27.085 17.3075 27.7211 17.5984 28.1807 18.0914C28.6403 18.5844 28.886 19.2393 28.864 19.913ZM20.9329 18.9761C21.0913 18.8023 21.3089 18.6938 21.5431 18.672L21.5567 18.6727C21.9952 18.6849 22.3827 19.5218 22.6943 20.1945L22.6944 20.1947L22.6951 20.1961C22.8536 20.5962 22.9854 21.0065 23.0895 21.4242C22.6605 21.401 22.2367 21.3197 21.8296 21.1825C21.2384 20.9517 20.531 20.5409 20.5229 19.8953C20.5274 19.7227 20.5659 19.5526 20.6362 19.3949C20.7066 19.2371 20.8074 19.0948 20.9329 18.9761ZM25.3383 20.042C25.3763 19.9021 25.7286 18.6727 26.4115 18.6727C26.716 18.6984 26.9981 18.843 27.1969 19.0751C27.3957 19.3072 27.4951 19.6082 27.4738 19.913C27.4738 20.5423 26.8018 20.9205 26.1338 21.2117C25.7544 21.3387 25.3587 21.4105 24.9588 21.4249C25.0953 20.9659 25.2222 20.5036 25.3383 20.042Z"
                    fill="url(#paint0_linear_2194_71660)"
                />
            </g>
            <rect
                x="0.4"
                y="0.4"
                width="47.2"
                height="47.2"
                rx="13.6"
                stroke="url(#paint1_linear_2194_71660)"
                stroke-opacity="0.4"
                stroke-width="0.8"
            />
            <rect
                x="0.4"
                y="0.4"
                width="47.2"
                height="47.2"
                rx="13.6"
                stroke="url(#paint2_linear_2194_71660)"
                stroke-opacity="0.4"
                stroke-width="0.8"
            />
        </g>
        <defs>
            <filter
                id="filter0_b_2194_71660"
                x="-100"
                y="-100"
                width="248"
                height="248"
                filterUnits="userSpaceOnUse"
                color-interpolation-filters="sRGB"
            >
                <feFlood flood-opacity="0" result="BackgroundImageFix" />
                <feGaussianBlur in="BackgroundImageFix" stdDeviation="50" />
                <feComposite
                    in2="SourceAlpha"
                    operator="in"
                    result="effect1_backgroundBlur_2194_71660"
                />
                <feBlend
                    mode="normal"
                    in="SourceGraphic"
                    in2="effect1_backgroundBlur_2194_71660"
                    result="shape"
                />
            </filter>
            <linearGradient
                id="paint0_linear_2194_71660"
                x1="12"
                y1="17.625"
                x2="35.4375"
                y2="30.75"
                gradientUnits="userSpaceOnUse"
            >
                <stop stop-color="#89FFB0" />
                <stop offset="0.2557" stop-color="#6BF3B4" />
                <stop offset="0.5295" stop-color="#69EED5" />
                <stop offset="0.7844" stop-color="#66D6F0" />
                <stop offset="1" stop-color="#57B5E6" />
            </linearGradient>
            <linearGradient
                id="paint1_linear_2194_71660"
                x1="14.1017"
                y1="-1.87654"
                x2="29.8764"
                y2="22.2512"
                gradientUnits="userSpaceOnUse"
            >
                <stop stop-color="white" />
                <stop offset="1" stop-color="white" stop-opacity="0" />
            </linearGradient>
            <linearGradient
                id="paint2_linear_2194_71660"
                x1="45.7187"
                y1="46.266"
                x2="38.5389"
                y2="39.5806"
                gradientUnits="userSpaceOnUse"
            >
                <stop stop-color="white" />
                <stop offset="1" stop-color="white" stop-opacity="0" />
            </linearGradient>
            <clipPath id="clip0_2194_71660">
                <rect
                    width="24"
                    height="24"
                    fill="white"
                    transform="translate(12 12)"
                />
            </clipPath>
        </defs>
    </svg>