<svg
        width="49"
        height="48"
        viewBox="0 0 49 48"
        fill="none"
        xmlns="http://www.w3.org/2000/svg"
    >
        <g filter="url(#filter0_b_2197_72573)">
            <rect
                x="0.5"
                width="48"
                height="48"
                rx="14"
                fill="white"
                fill-opacity="0.04"
            />
            <g clip-path="url(#clip0_2197_72573)">
                <path
                    d="M35.9688 15.9682C36.3225 18.6309 36.4999 21.314 36.4999 24C36.4999 26.6989 36.3208 29.3948 35.9638 32.07C35.8436 32.9347 35.4424 33.7359 34.8221 34.3501C34.2017 34.9644 33.3966 35.3576 32.5308 35.4693C29.8489 35.8255 27.1462 36.0029 24.4408 36.0002C21.7751 35.9976 19.1124 35.8202 16.4699 35.4691C15.5979 35.3542 14.7883 34.9548 14.1665 34.3329C13.5447 33.7109 13.1455 32.9011 13.0309 32.0291C12.3213 26.6861 12.323 21.2726 13.036 15.93C13.1561 15.0655 13.5572 14.2644 14.1773 13.6503C14.7975 13.0361 15.6024 12.6428 16.4681 12.5311C21.812 11.8213 27.2264 11.823 32.5699 12.5361C33.4344 12.6562 34.2355 13.0573 34.8497 13.6774C35.4639 14.2976 35.8571 15.1026 35.9688 15.9682ZM31.3314 21.9224C31.0992 21.7392 30.8178 21.6293 30.5229 21.6067C30.228 21.5841 29.9331 21.6498 29.6757 21.7954L28.4335 22.4868C28.3765 22.5203 28.3132 22.5417 28.2475 22.5495C28.1819 22.5573 28.1153 22.5514 28.0521 22.5322C27.9748 22.5075 27.9033 22.4676 27.8417 22.4149C27.7801 22.3621 27.7296 22.2976 27.6933 22.2251L25.8754 18.8525C25.7482 18.5965 25.552 18.381 25.309 18.2304C25.066 18.0798 24.7858 18 24.4999 18C24.214 18 23.9338 18.0798 23.6907 18.2304C23.4477 18.381 23.2516 18.5965 23.1244 18.8525L21.3065 22.2251C21.2701 22.2976 21.2197 22.3621 21.1581 22.4149C21.0965 22.4676 21.0249 22.5075 20.9477 22.5322C20.8844 22.5514 20.8179 22.5572 20.7522 22.5494C20.6866 22.5416 20.6233 22.5203 20.5663 22.4868L19.3241 21.7954C19.0667 21.6498 18.7718 21.5841 18.4769 21.6067C18.182 21.6293 17.9006 21.7392 17.6684 21.9224C17.3967 22.1382 17.1943 22.4288 17.0861 22.7584C16.978 23.0881 16.9688 23.4422 17.0599 23.7769L18.3348 28.7432C18.4148 29.093 18.6087 29.4063 18.8862 29.6338C19.1637 29.8613 19.5089 29.9901 19.8676 30H29.1322C29.4909 29.9902 29.8361 29.8615 30.1137 29.6341C30.3912 29.4067 30.5853 29.0935 30.6654 28.7437L31.9399 23.7769C32.0309 23.4422 32.0218 23.0881 31.9137 22.7584C31.8055 22.4288 31.6031 22.1382 31.3314 21.9224Z"
                    fill="url(#paint0_linear_2197_72573)"
                />
            </g>
            <rect
                x="0.9"
                y="0.4"
                width="47.2"
                height="47.2"
                rx="13.6"
                stroke="url(#paint1_linear_2197_72573)"
                stroke-opacity="0.4"
                stroke-width="0.8"
            />
            <rect
                x="0.9"
                y="0.4"
                width="47.2"
                height="47.2"
                rx="13.6"
                stroke="url(#paint2_linear_2197_72573)"
                stroke-opacity="0.4"
                stroke-width="0.8"
            />
        </g>
        <defs>
            <filter
                id="filter0_b_2197_72573"
                x="-99.5"
                y="-100"
                width="248"
                height="248"
                filterUnits="userSpaceOnUse"
                color-interpolation-filters="sRGB"
            >
                <feFlood flood-opacity="0" result="BackgroundImageFix" />
                <feGaussianBlur in="BackgroundImageFix" stdDeviation="50" />
                <feComposite
                    in2="SourceAlpha"
                    operator="in"
                    result="effect1_backgroundBlur_2197_72573"
                />
                <feBlend
                    mode="normal"
                    in="SourceGraphic"
                    in2="effect1_backgroundBlur_2197_72573"
                    result="shape"
                />
            </filter>
            <linearGradient
                id="paint0_linear_2197_72573"
                x1="12.5"
                y1="17.625"
                x2="35.9375"
                y2="30.75"
                gradientUnits="userSpaceOnUse"
            >
                <stop stop-color="#89FFB0" />
                <stop offset="0.2557" stop-color="#6BF3B4" />
                <stop offset="0.5295" stop-color="#69EED5" />
                <stop offset="0.7844" stop-color="#66D6F0" />
                <stop offset="1" stop-color="#57B5E6" />
            </linearGradient>
            <linearGradient
                id="paint1_linear_2197_72573"
                x1="14.6017"
                y1="-1.87654"
                x2="30.3764"
                y2="22.2512"
                gradientUnits="userSpaceOnUse"
            >
                <stop stop-color="white" />
                <stop offset="1" stop-color="white" stop-opacity="0" />
            </linearGradient>
            <linearGradient
                id="paint2_linear_2197_72573"
                x1="46.2187"
                y1="46.266"
                x2="39.0389"
                y2="39.5806"
                gradientUnits="userSpaceOnUse"
            >
                <stop stop-color="white" />
                <stop offset="1" stop-color="white" stop-opacity="0" />
            </linearGradient>
            <clipPath id="clip0_2197_72573">
                <rect
                    width="24"
                    height="24"
                    fill="white"
                    transform="translate(12.5 12)"
                />
            </clipPath>
        </defs>
    </svg>