<svg
        width="49"
        height="48"
        viewBox="0 0 49 48"
        fill="none"
        xmlns="http://www.w3.org/2000/svg"
    >
        <g filter="url(#filter0_b_2197_72478)">
            <rect
                x="0.5"
                width="48"
                height="48"
                rx="14"
                fill="white"
                fill-opacity="0.04"
            />
            <g clip-path="url(#clip0_2197_72478)">
                <path
                    fill-rule="evenodd"
                    clip-rule="evenodd"
                    d="M36.4989 23.7139C36.4989 21.0278 36.3215 18.3447 35.9678 15.6821C35.8561 14.8164 35.4629 14.0115 34.8487 13.3913C34.2345 12.7711 33.4334 12.3701 32.5689 12.25C27.2254 11.5368 21.811 11.5352 16.4671 12.245C15.6015 12.3567 14.7965 12.7499 14.1764 13.3641C13.5562 13.9783 13.1551 14.7794 13.035 15.6439C12.3221 20.9865 12.3204 26.4 13.0299 31.743C13.1445 32.615 13.5437 33.4247 14.1655 34.0467C14.7873 34.6687 15.597 35.0681 16.4689 35.183C19.1114 35.534 21.7741 35.7114 24.4398 35.7141C27.1453 35.7167 29.8479 35.5394 32.5298 35.1832C33.3956 35.0715 34.2007 34.6783 34.8211 34.064C35.4414 33.4497 35.8426 32.6486 35.9628 31.7839C36.3198 29.1087 36.4989 26.4128 36.4989 23.7139ZM32.6405 28.133C33.2658 28.133 33.7726 27.6261 33.7726 27.0008V26.7328C33.7726 26.1075 33.2658 25.6007 32.6405 25.6007H30.1914L28.644 25.79C27.9692 25.8725 27.6312 25.3873 28.2897 25.2185C28.3437 25.2047 28.3993 25.1908 28.4565 25.1765L28.4982 25.1661L30.7458 24.6117C32.5439 24.1622 33.8026 23.2781 33.8026 21.3901C33.8026 19.3373 32.5439 17.9438 29.3673 17.9438C25.831 17.9438 24.4524 19.7868 24.4524 21.8097C24.4524 21.9338 24.5531 22.0344 24.6772 22.0344H27.0147C27.1223 22.0344 27.2095 21.9472 27.2095 21.8396C27.2095 20.9256 27.5841 20.5061 29.2624 20.5061C30.7908 20.5061 30.9856 20.8357 30.9856 21.3452C30.9856 21.8097 30.7308 22.0045 30.0865 22.2142L27.3594 23.0833C25.2016 23.7726 24.4075 24.6567 24.4075 26.3648V27.0008C24.4075 27.6261 24.9143 28.133 25.5396 28.133H32.6405ZM17.1285 28.133C17.5064 28.133 17.8594 27.9444 18.0695 27.6303L19.1746 25.9783C19.2009 25.9389 19.2451 25.9153 19.2925 25.9153C19.3389 25.9153 19.3824 25.938 19.4089 25.9761L20.5721 27.6475C20.7837 27.9517 21.1308 28.133 21.5013 28.133H22.0718C23.0085 28.133 23.54 27.0605 22.9727 26.3152L21.5846 24.4915C21.5552 24.4528 21.5393 24.4056 21.5393 24.357C21.5393 24.3084 21.5552 24.2611 21.5846 24.2224L22.9727 22.3988C23.54 21.6535 23.0085 20.581 22.0718 20.581H21.5686C21.1858 20.581 20.8289 20.7744 20.6199 21.0952L19.5128 22.7951C19.487 22.8347 19.4429 22.8586 19.3957 22.8586C19.3494 22.8586 19.306 22.8356 19.28 22.7972L18.115 21.078C17.9044 20.7672 17.5533 20.581 17.1778 20.581H16.5997C15.6661 20.581 15.1338 21.6474 15.6949 22.3936L17.1043 24.2677C17.1332 24.3062 17.1489 24.353 17.1489 24.4012C17.1489 24.4503 17.1326 24.4979 17.1027 24.5368L15.7365 26.3098C15.163 27.0542 15.6936 28.133 16.6333 28.133H17.1285Z"
                    fill="url(#paint0_linear_2197_72478)"
                />
            </g>
            <rect
                x="0.9"
                y="0.4"
                width="47.2"
                height="47.2"
                rx="13.6"
                stroke="url(#paint1_linear_2197_72478)"
                stroke-opacity="0.4"
                stroke-width="0.8"
            />
            <rect
                x="0.9"
                y="0.4"
                width="47.2"
                height="47.2"
                rx="13.6"
                stroke="url(#paint2_linear_2197_72478)"
                stroke-opacity="0.4"
                stroke-width="0.8"
            />
        </g>
        <defs>
            <filter
                id="filter0_b_2197_72478"
                x="-99.5"
                y="-100"
                width="248"
                height="248"
                filterUnits="userSpaceOnUse"
                color-interpolation-filters="sRGB"
            >
                <feFlood flood-opacity="0" result="BackgroundImageFix" />
                <feGaussianBlur in="BackgroundImageFix" stdDeviation="50" />
                <feComposite
                    in2="SourceAlpha"
                    operator="in"
                    result="effect1_backgroundBlur_2197_72478"
                />
                <feBlend
                    mode="normal"
                    in="SourceGraphic"
                    in2="effect1_backgroundBlur_2197_72478"
                    result="shape"
                />
            </filter>
            <linearGradient
                id="paint0_linear_2197_72478"
                x1="12.499"
                y1="17.3389"
                x2="35.9365"
                y2="30.4639"
                gradientUnits="userSpaceOnUse"
            >
                <stop stop-color="#89FFB0" />
                <stop offset="0.2557" stop-color="#6BF3B4" />
                <stop offset="0.5295" stop-color="#69EED5" />
                <stop offset="0.7844" stop-color="#66D6F0" />
                <stop offset="1" stop-color="#57B5E6" />
            </linearGradient>
            <linearGradient
                id="paint1_linear_2197_72478"
                x1="14.6017"
                y1="-1.87654"
                x2="30.3764"
                y2="22.2512"
                gradientUnits="userSpaceOnUse"
            >
                <stop stop-color="white" />
                <stop offset="1" stop-color="white" stop-opacity="0" />
            </linearGradient>
            <linearGradient
                id="paint2_linear_2197_72478"
                x1="46.2187"
                y1="46.266"
                x2="39.0389"
                y2="39.5806"
                gradientUnits="userSpaceOnUse"
            >
                <stop stop-color="white" />
                <stop offset="1" stop-color="white" stop-opacity="0" />
            </linearGradient>
            <clipPath id="clip0_2197_72478">
                <rect
                    width="24"
                    height="24"
                    fill="white"
                    transform="translate(12.5 12)"
                />
            </clipPath>
        </defs>
    </svg>