 <svg
        width="48"
        height="48"
        viewBox="0 0 48 48"
        fill="none"
        xmlns="http://www.w3.org/2000/svg"
    >
        <g filter="url(#filter0_b_2197_72666)">
            <rect
                width="48"
                height="48"
                rx="14"
                fill="white"
                fill-opacity="0.04"
            />
            <g clip-path="url(#clip0_2197_72666)">
                <path
                    fill-rule="evenodd"
                    clip-rule="evenodd"
                    d="M35.9999 24C35.9999 21.314 35.8225 18.6309 35.4688 15.9682C35.3571 15.1026 34.9639 14.2976 34.3497 13.6774C33.7355 13.0573 32.9344 12.6562 32.0699 12.5361C26.7264 11.823 21.312 11.8213 15.9681 12.5311C15.1024 12.6428 14.2975 13.0361 13.6773 13.6503C13.0572 14.2644 12.6561 15.0655 12.536 15.93C11.823 21.2726 11.8213 26.6861 12.5309 32.0291C12.6455 32.9011 13.0447 33.7109 13.6665 34.3329C14.2883 34.9548 15.0979 35.3542 15.9699 35.4691C18.6124 35.8202 21.2751 35.9976 23.9408 36.0002C26.6462 36.0029 29.3489 35.8255 32.0308 35.4693C32.8966 35.3576 33.7017 34.9644 34.3221 34.3501C34.9424 33.7359 35.3436 32.9347 35.4638 32.07C35.8208 29.3948 35.9999 26.6989 35.9999 24ZM23.5936 31.8904C23.845 32.0356 24.1548 32.0356 24.4062 31.8904L30.6307 28.2967C30.8822 28.1516 31.037 27.8833 31.037 27.593V20.4056C31.037 20.1153 30.8822 19.847 30.6307 19.7019L24.4062 16.1082C24.1548 15.963 23.845 15.963 23.5936 16.1082L17.3691 19.7019C17.1177 19.847 16.9628 20.1153 16.9628 20.4056V27.593C16.9628 27.8833 17.1177 28.1516 17.3691 28.2967L23.5936 31.8904ZM24.2257 19.6763L25.3327 22.6678L28.3077 23.7687V24.2324L25.3327 25.3332L24.2257 28.3247H23.7742L22.6672 25.3332L19.6922 24.2324V23.7687L22.6672 22.6678L23.7742 19.6763H24.2257Z"
                    fill="url(#paint0_linear_2197_72666)"
                />
            </g>
            <rect
                x="0.4"
                y="0.4"
                width="47.2"
                height="47.2"
                rx="13.6"
                stroke="url(#paint1_linear_2197_72666)"
                stroke-opacity="0.4"
                stroke-width="0.8"
            />
            <rect
                x="0.4"
                y="0.4"
                width="47.2"
                height="47.2"
                rx="13.6"
                stroke="url(#paint2_linear_2197_72666)"
                stroke-opacity="0.4"
                stroke-width="0.8"
            />
        </g>
        <defs>
            <filter
                id="filter0_b_2197_72666"
                x="-100"
                y="-100"
                width="248"
                height="248"
                filterUnits="userSpaceOnUse"
                color-interpolation-filters="sRGB"
            >
                <feFlood flood-opacity="0" result="BackgroundImageFix" />
                <feGaussianBlur in="BackgroundImageFix" stdDeviation="50" />
                <feComposite
                    in2="SourceAlpha"
                    operator="in"
                    result="effect1_backgroundBlur_2197_72666"
                />
                <feBlend
                    mode="normal"
                    in="SourceGraphic"
                    in2="effect1_backgroundBlur_2197_72666"
                    result="shape"
                />
            </filter>
            <linearGradient
                id="paint0_linear_2197_72666"
                x1="12"
                y1="17.625"
                x2="35.4375"
                y2="30.75"
                gradientUnits="userSpaceOnUse"
            >
                <stop stop-color="#89FFB0" />
                <stop offset="0.2557" stop-color="#6BF3B4" />
                <stop offset="0.5295" stop-color="#69EED5" />
                <stop offset="0.7844" stop-color="#66D6F0" />
                <stop offset="1" stop-color="#57B5E6" />
            </linearGradient>
            <linearGradient
                id="paint1_linear_2197_72666"
                x1="14.1017"
                y1="-1.87654"
                x2="29.8764"
                y2="22.2512"
                gradientUnits="userSpaceOnUse"
            >
                <stop stop-color="white" />
                <stop offset="1" stop-color="white" stop-opacity="0" />
            </linearGradient>
            <linearGradient
                id="paint2_linear_2197_72666"
                x1="45.7187"
                y1="46.266"
                x2="38.5389"
                y2="39.5806"
                gradientUnits="userSpaceOnUse"
            >
                <stop stop-color="white" />
                <stop offset="1" stop-color="white" stop-opacity="0" />
            </linearGradient>
            <clipPath id="clip0_2197_72666">
                <rect
                    width="24"
                    height="24"
                    fill="white"
                    transform="translate(12 12)"
                />
            </clipPath>
        </defs>
    </svg>