<svg
        width="49"
        height="48"
        viewBox="0 0 49 48"
        fill="none"
        xmlns="http://www.w3.org/2000/svg"
    >
        <g filter="url(#filter0_b_2197_72150)">
            <rect
                x="0.5"
                width="48"
                height="48"
                rx="14"
                fill="white"
                fill-opacity="0.04"
            />
            <g clip-path="url(#clip0_2197_72150)">
                <path
                    fill-rule="evenodd"
                    clip-rule="evenodd"
                    d="M36.4999 24C36.4999 21.314 36.3225 18.6309 35.9688 15.9682C35.8571 15.1026 35.4639 14.2976 34.8497 13.6774C34.2355 13.0573 33.4344 12.6562 32.5699 12.5361C27.2264 11.823 21.812 11.8213 16.4681 12.5311C15.6024 12.6428 14.7975 13.0361 14.1773 13.6503C13.5572 14.2644 13.1561 15.0655 13.036 15.93C12.323 21.2726 12.3213 26.6861 13.0309 32.0291C13.1455 32.9011 13.5447 33.7109 14.1665 34.3329C14.7883 34.9548 15.5979 35.3542 16.4699 35.4691C19.1124 35.8202 21.7751 35.9976 24.4408 36.0002C27.1462 36.0029 29.8489 35.8255 32.5308 35.4693C33.3966 35.3576 34.2017 34.9644 34.8221 34.3501C35.4424 33.7359 35.8436 32.9347 35.9638 32.07C36.3208 29.3948 36.4999 26.6989 36.4999 24ZM24.5057 15.9537C21.3856 15.9537 18.862 18.4772 18.862 21.5973C18.862 22.7664 19.2087 23.8387 19.8053 24.7336C20.6761 26.0236 22.0547 26.9346 23.6591 27.1684C23.9333 27.2168 24.2154 27.241 24.5057 27.241C24.7959 27.241 25.0781 27.2168 25.3522 27.1684C26.9567 26.9346 28.3353 26.0236 29.2061 24.7336C29.8027 23.8387 30.1494 22.7664 30.1494 21.5973C30.1494 18.4772 27.6258 15.9537 24.5057 15.9537ZM26.9728 21.42L26.3036 22.0891C26.1907 22.202 26.1262 22.4197 26.1665 22.581L26.36 23.4114C26.5132 24.0644 26.1665 24.3224 25.586 23.9757L24.7798 23.5001C24.6347 23.4114 24.3928 23.4114 24.2477 23.5001L23.4415 23.9757C22.861 24.3144 22.5143 24.0644 22.6675 23.4114L22.861 22.581C22.8932 22.4278 22.8368 22.202 22.7239 22.0891L22.0386 21.42C21.6435 21.0249 21.7725 20.6299 22.3208 20.5412L23.1835 20.3961C23.3286 20.3719 23.4979 20.2429 23.5624 20.1139L24.0381 19.1625C24.2961 18.6465 24.7153 18.6465 24.9733 19.1625L25.449 20.1139C25.5135 20.2429 25.6828 20.3719 25.836 20.3961L26.6987 20.5412C27.2388 20.6299 27.3678 21.0249 26.9728 21.42ZM18.3374 29.5462L17.0071 29.2317C16.3944 29.0866 16.1767 28.3207 16.7894 27.7079L18.5793 25.9181C18.7486 25.7488 19.0227 25.773 19.1759 25.9584C20.1192 27.0952 21.4011 27.8934 22.8282 28.2401C23.1184 28.3126 23.2232 28.6674 23.0297 28.8931L20.6191 31.6666C20.1918 32.1745 19.3694 31.9729 19.2162 31.328L18.934 30.1428C18.8695 29.8445 18.6357 29.6187 18.3374 29.5462ZM30.6332 29.5462L31.9635 29.2317C32.5762 29.0866 32.7939 28.3207 32.1812 27.7079L30.3913 25.9181C30.222 25.7488 29.9479 25.773 29.7947 25.9584C28.8514 27.0952 27.5695 27.8934 26.1424 28.2401C25.8522 28.3126 25.7474 28.6674 25.9409 28.8931L28.3515 31.6666C28.7788 32.1745 29.6012 31.9729 29.7544 31.328L30.0366 30.1428C30.1011 29.8445 30.3349 29.6187 30.6332 29.5462Z"
                    fill="url(#paint0_linear_2197_72150)"
                />
            </g>
            <rect
                x="0.9"
                y="0.4"
                width="47.2"
                height="47.2"
                rx="13.6"
                stroke="url(#paint1_linear_2197_72150)"
                stroke-opacity="0.4"
                stroke-width="0.8"
            />
            <rect
                x="0.9"
                y="0.4"
                width="47.2"
                height="47.2"
                rx="13.6"
                stroke="url(#paint2_linear_2197_72150)"
                stroke-opacity="0.4"
                stroke-width="0.8"
            />
        </g>
        <defs>
            <filter
                id="filter0_b_2197_72150"
                x="-99.5"
                y="-100"
                width="248"
                height="248"
                filterUnits="userSpaceOnUse"
                color-interpolation-filters="sRGB"
            >
                <feFlood flood-opacity="0" result="BackgroundImageFix" />
                <feGaussianBlur in="BackgroundImageFix" stdDeviation="50" />
                <feComposite
                    in2="SourceAlpha"
                    operator="in"
                    result="effect1_backgroundBlur_2197_72150"
                />
                <feBlend
                    mode="normal"
                    in="SourceGraphic"
                    in2="effect1_backgroundBlur_2197_72150"
                    result="shape"
                />
            </filter>
            <linearGradient
                id="paint0_linear_2197_72150"
                x1="12.5"
                y1="17.625"
                x2="35.9375"
                y2="30.75"
                gradientUnits="userSpaceOnUse"
            >
                <stop stop-color="#89FFB0" />
                <stop offset="0.2557" stop-color="#6BF3B4" />
                <stop offset="0.5295" stop-color="#69EED5" />
                <stop offset="0.7844" stop-color="#66D6F0" />
                <stop offset="1" stop-color="#57B5E6" />
            </linearGradient>
            <linearGradient
                id="paint1_linear_2197_72150"
                x1="14.6017"
                y1="-1.87654"
                x2="30.3764"
                y2="22.2512"
                gradientUnits="userSpaceOnUse"
            >
                <stop stop-color="white" />
                <stop offset="1" stop-color="white" stop-opacity="0" />
            </linearGradient>
            <linearGradient
                id="paint2_linear_2197_72150"
                x1="46.2187"
                y1="46.266"
                x2="39.0389"
                y2="39.5806"
                gradientUnits="userSpaceOnUse"
            >
                <stop stop-color="white" />
                <stop offset="1" stop-color="white" stop-opacity="0" />
            </linearGradient>
            <clipPath id="clip0_2197_72150">
                <rect
                    width="24"
                    height="24"
                    fill="white"
                    transform="translate(12.5 12)"
                />
            </clipPath>
        </defs>
    </svg>