<svg
    width="36"
    height="36"
    viewBox="0 0 36 36"
    fill="none"
    xmlns="http://www.w3.org/2000/svg"
>
    <rect x="-0.000152588" width="36" height="36" rx="18" fill="#0C0E0F" />
    <path
        fill-rule="evenodd"
        clip-rule="evenodd"
        d="M15.7831 10.2852C16.4687 10.2852 17.0245 10.8409 17.0245 11.5265V23.5857C17.0245 24.2712 16.4687 24.827 15.7831 24.827H13.655C11.7941 24.827 10.2856 23.3185 10.2856 21.4576V13.6546C10.2856 11.7937 11.7941 10.2852 13.655 10.2852H15.7831ZM12.7683 14.5413C12.7683 14.0516 13.1653 13.6546 13.655 13.6546C14.1448 13.6546 14.5417 14.0516 14.5417 14.5413C14.5417 15.031 14.1448 15.428 13.655 15.428C13.1653 15.428 12.7683 15.031 12.7683 14.5413ZM13.123 18.6201C13.123 18.3263 13.3612 18.0881 13.655 18.0881C13.9488 18.0881 14.187 18.3263 14.187 18.6201V19.1522H14.7191C15.0129 19.1522 15.2511 19.3904 15.2511 19.6842C15.2511 19.978 15.0129 20.2162 14.7191 20.2162H14.187V20.7482C14.187 21.042 13.9488 21.2802 13.655 21.2802C13.3612 21.2802 13.123 21.042 13.123 20.7482V20.2162H12.591C12.2972 20.2162 12.059 19.978 12.059 19.6842C12.059 19.3904 12.2972 19.1522 12.591 19.1522H13.123V18.6201ZM20.2166 25.7137C19.531 25.7137 18.9752 25.1579 18.9752 24.4723V12.4132C18.9752 11.7276 19.531 11.1719 20.2166 11.1719H22.3447C24.2056 11.1719 25.7141 12.6804 25.7141 14.5413V22.3443C25.7141 24.2052 24.2056 25.7137 22.3447 25.7137H20.2166ZM23.2314 21.4576C23.2314 21.9473 22.8344 22.3443 22.3447 22.3443C21.8549 22.3443 21.458 21.9473 21.458 21.4576C21.458 20.9679 21.8549 20.5709 22.3447 20.5709C22.8344 20.5709 23.2314 20.9679 23.2314 21.4576ZM22.8767 17.3788C22.8767 17.6726 22.6385 17.9108 22.3447 17.9108C22.0508 17.9108 21.8126 17.6726 21.8126 17.3788V16.8467H21.2806C20.9868 16.8467 20.7486 16.6085 20.7486 16.3147C20.7486 16.0209 20.9868 15.7827 21.2806 15.7827H21.8126V15.2507C21.8126 14.9569 22.0508 14.7187 22.3447 14.7187C22.6385 14.7187 22.8767 14.9569 22.8767 15.2507V15.7827H23.4087C23.7025 15.7827 23.9407 16.0209 23.9407 16.3147C23.9407 16.6085 23.7025 16.8467 23.4087 16.8467H22.8767V17.3788Z"
        fill="white"
    />
</svg>